<svg width="25" height="24" viewBox="0 0 25 24" fill="none" xmlns="http://www.w3.org/2000/svg">
<rect x="13.7998" y="14" width="2" height="2" rx="1" fill="#9B53F8"/>
<path d="M10.7998 14H6.7998" stroke="#9B53F8" stroke-linecap="round"/>
<path d="M8.7998 12L8.7998 16" stroke="#9B53F8" stroke-linecap="round"/>
<rect x="16.7998" y="12" width="2" height="2" rx="1" fill="#9B53F8"/>
<path d="M14.7998 8V8C14.7998 7.58326 14.7998 7.37488 14.7653 7.19144C14.6453 6.5546 14.2243 6.01534 13.6356 5.74455C13.466 5.66654 13.2638 5.616 12.8595 5.51493L12.7998 5.5C12.3386 5.3847 12.108 5.32706 11.9169 5.233C11.3684 4.96315 10.9735 4.45731 10.8447 3.85979C10.7998 3.65151 10.7998 3.41382 10.7998 2.93845V2" stroke="#9B53F8" stroke-linecap="round"/>
<path d="M3.7998 14C3.7998 11.4412 3.7998 10.1618 4.41974 9.28042C4.57935 9.05351 4.76552 8.85041 4.97352 8.6763C5.78144 8 6.95423 8 9.2998 8H16.2998C18.6454 8 19.8182 8 20.6261 8.6763C20.8341 8.85041 21.0203 9.05351 21.1799 9.28042C21.7998 10.1618 21.7998 11.4412 21.7998 14C21.7998 16.5588 21.7998 17.8382 21.1799 18.7196C21.0203 18.9465 20.8341 19.1496 20.6261 19.3237C19.8182 20 18.6454 20 16.2998 20H9.29981C6.95423 20 5.78144 20 4.97352 19.3237C4.76552 19.1496 4.57935 18.9465 4.41974 18.7196C3.7998 17.8382 3.7998 16.5588 3.7998 14Z" stroke="#9B53F8"/>
</svg>
