<svg width="25" height="24" viewBox="0 0 25 24" fill="none" xmlns="http://www.w3.org/2000/svg">
<path d="M14.3949 11C14.3949 11.3975 14.2765 11.7859 14.0547 12.1158C13.833 12.4456 13.518 12.702 13.1499 12.852V15.25C13.1499 15.4489 13.0709 15.6397 12.9302 15.7803C12.7896 15.921 12.5988 16 12.3999 16C12.201 16 12.0102 15.921 11.8696 15.7803C11.7289 15.6397 11.6499 15.4489 11.6499 15.25V12.856C11.3129 12.7207 11.0191 12.4963 10.8 12.2067C10.5809 11.9172 10.4448 11.5734 10.4062 11.2124C10.3676 10.8513 10.4281 10.4866 10.5811 10.1573C10.7341 9.82794 10.9739 9.5465 11.2747 9.34311C11.5755 9.13973 11.926 9.02207 12.2886 9.00276C12.6512 8.98346 13.0122 9.06323 13.3329 9.23353C13.6536 9.40383 13.9219 9.65822 14.109 9.96942C14.2961 10.2806 14.3949 10.6369 14.3949 11ZM4.1499 5C3.95099 5 3.76022 5.07902 3.61957 5.21967C3.47892 5.36032 3.3999 5.55109 3.3999 5.75V11C3.3999 16.001 6.3579 19.676 12.1249 21.948C12.3016 22.0176 12.4982 22.0176 12.6749 21.948C18.4419 19.676 21.3999 16 21.3999 11V5.75C21.3999 5.55109 21.3209 5.36032 21.1802 5.21967C21.0396 5.07902 20.8488 5 20.6499 5C17.9869 5 15.3919 4.057 12.8499 2.15C12.7201 2.05263 12.5622 2 12.3999 2C12.2376 2 12.0797 2.05263 11.9499 2.15C9.4079 4.057 6.8129 5 4.1499 5ZM4.8999 11V6.478C7.4769 6.326 9.9799 5.388 12.3999 3.678C14.8199 5.388 17.3229 6.326 19.8999 6.478V11C19.8999 15.256 17.4469 18.379 12.3999 20.442C7.3529 18.379 4.8999 15.256 4.8999 11Z" fill="#F25D5D"/>
</svg>
