<svg width="25" height="24" viewBox="0 0 25 24" fill="none" xmlns="http://www.w3.org/2000/svg">
<path d="M13.9944 4.74363H14.4944V4.72239L14.4926 4.70123L13.9944 4.74363ZM13.9944 4.7436L14.4927 4.70119L14.4919 4.69384L13.9944 4.7436ZM13.9944 4.74365H13.4944V4.76858L13.4969 4.7934L13.9944 4.74365ZM14.1149 5.52584L13.6526 5.71631L13.6526 5.71631L14.1149 5.52584ZM15.424 6.06806L15.2317 5.60649L15.2317 5.60649L15.424 6.06806ZM16.0623 5.60019L16.3789 5.98716V5.98716L16.0623 5.60019ZM16.4165 5.33577L16.6505 5.7776L16.6505 5.7776L16.4165 5.33577ZM17.4383 5.38673L17.7152 4.97038L17.7152 4.97038L17.4383 5.38673ZM17.7645 5.68508L18.118 5.33153V5.33153L17.7645 5.68508ZM18.515 6.43562L18.1614 6.78917L18.1671 6.79487L18.173 6.80038L18.515 6.43562ZM18.515 6.43563L18.8686 6.08207L18.8629 6.07637L18.857 6.07086L18.515 6.43563ZM18.8133 6.76174L19.2297 6.48487L19.2297 6.48487L18.8133 6.76174ZM18.8643 7.78359L18.4225 7.54953V7.54953L18.8643 7.78359ZM18.5999 8.13777L18.2129 7.82113L18.2095 7.82542L18.5999 8.13777ZM18.5999 8.13778L18.9869 8.45442L18.9903 8.45013L18.5999 8.13778ZM18.132 8.77604L18.5936 8.96827V8.96827L18.132 8.77604ZM18.6743 10.0851L18.4838 10.5474L18.6743 10.0851ZM19.4564 10.2056L19.4067 10.7031L19.4564 10.2056ZM19.8939 10.2691L20.0408 9.79117L19.8939 10.2691ZM20.5804 11.0277L21.0706 10.929V10.929L20.5804 11.0277ZM20.5804 12.9722L20.0902 12.8736V12.8736L20.5804 12.9722ZM19.8938 13.7309L20.0407 14.2088L20.0407 14.2088L19.8938 13.7309ZM19.4565 13.7943L19.5062 14.2918H19.5062L19.4565 13.7943ZM19.4565 13.7943L19.4067 13.2968L19.4067 13.2968L19.4565 13.7943ZM18.6746 13.9148L18.865 14.3771L18.865 14.3771L18.6746 13.9148ZM18.1323 15.224L18.5939 15.0317L18.5939 15.0317L18.1323 15.224ZM18.6 15.862L18.213 16.1786L18.213 16.1786L18.6 15.862ZM18.8643 16.216L19.3061 15.9819L19.3061 15.9819L18.8643 16.216ZM18.8133 17.238L19.2296 17.5149L19.2296 17.5149L18.8133 17.238ZM18.5151 17.564L18.1615 17.2104L18.1615 17.2104L18.5151 17.564ZM17.7645 18.3146L18.1181 18.6681L17.7645 18.3146ZM17.7645 18.3146L18.118 18.6681L18.118 18.6681L17.7645 18.3146ZM17.4384 18.6129L17.7152 19.0293L17.7152 19.0293L17.4384 18.6129ZM16.4165 18.6639L16.6506 18.2221H16.6506L16.4165 18.6639ZM16.0623 18.3995L16.3789 18.0125L16.36 17.997L16.3397 17.9835L16.0623 18.3995ZM16.0623 18.3995L15.7457 18.7865L15.7646 18.8019L15.785 18.8155L16.0623 18.3995ZM15.424 17.9316L15.2318 18.3932L15.424 17.9316ZM14.115 18.4738L13.6527 18.2834V18.2834L14.115 18.4738ZM13.9944 19.2562L14.492 19.3059L13.9944 19.2562ZM13.9309 19.6939L13.453 19.547L13.453 19.547L13.9309 19.6939ZM13.1724 20.3803L13.2711 20.8705H13.2711L13.1724 20.3803ZM11.2278 20.3804L11.3264 19.8902H11.3264L11.2278 20.3804ZM10.4692 19.6939L10.9471 19.5469L10.9471 19.5469L10.4692 19.6939ZM10.4057 19.2564L9.90818 19.3061L10.4057 19.2564ZM10.2852 18.4742L9.82288 18.6646L9.82288 18.6646L10.2852 18.4742ZM8.97616 17.932L9.16837 18.3935H9.16837L8.97616 17.932ZM8.33781 18.3999L8.65443 18.7869L8.65443 18.7869L8.33781 18.3999ZM7.98355 18.6643L8.2176 19.1062H8.2176L7.98355 18.6643ZM6.96175 18.6134L6.6849 19.0297L6.6849 19.0297L6.96175 18.6134ZM6.63557 18.315L6.98913 17.9614L6.63557 18.315ZM5.8851 17.5645L5.53155 17.9181H5.53155L5.8851 17.5645ZM5.5867 17.2383L5.17034 17.5151H5.17034L5.5867 17.2383ZM5.53574 16.2165L5.97758 16.4506L5.97758 16.4506L5.53574 16.2165ZM5.80021 15.8622L5.42392 15.533L5.41847 15.5392L5.41323 15.5456L5.80021 15.8622ZM5.80022 15.8622L6.17651 16.1915L6.18196 16.1853L6.1872 16.1789L5.80022 15.8622ZM6.26815 15.2239L5.80656 15.0316L5.80656 15.0316L6.26815 15.2239ZM5.72594 13.9149L5.53546 14.3771L5.53546 14.3772L5.72594 13.9149ZM4.94367 13.7943L4.89392 14.2918L4.89392 14.2918L4.94367 13.7943ZM4.50619 13.7308L4.35925 14.2087L4.35926 14.2088L4.50619 13.7308ZM3.8197 12.9723L3.32953 13.0709L3.8197 12.9723ZM3.80005 12.5306H3.30005H3.80005ZM3.80005 11.4694H4.30005H3.80005ZM3.81972 11.0276L3.32955 10.9289L3.81972 11.0276ZM4.50613 10.2691L4.65309 10.747L4.65309 10.747L4.50613 10.2691ZM4.94375 10.2056L4.9935 10.7031L4.94375 10.2056ZM5.72626 10.085L5.53574 9.62274H5.53574L5.72626 10.085ZM6.26841 8.77614L5.80681 8.9683L5.80681 8.9683L6.26841 8.77614ZM5.80032 8.13752L5.40032 8.43752L5.40665 8.44596L5.41334 8.45413L5.80032 8.13752ZM5.80032 8.13751L6.20032 7.83751L6.19398 7.82907L6.18729 7.82089L5.80032 8.13751ZM5.53573 7.78306L5.09387 8.01707L5.53573 7.78306ZM5.58669 6.76143L5.1703 6.48462L5.1703 6.48463L5.58669 6.76143ZM6.96179 5.38631L7.23864 5.80266H7.23864L6.96179 5.38631ZM7.98358 5.33534L8.21763 4.8935L8.21763 4.8935L7.98358 5.33534ZM8.3379 5.59984L8.65452 5.21287V5.21287L8.3379 5.59984ZM8.97607 6.06765L8.7838 6.52921V6.52921L8.97607 6.06765ZM10.2853 5.52537L10.7476 5.71578L10.2853 5.52537ZM10.4057 4.7435L9.91251 4.6613L9.90982 4.67746L9.90819 4.69375L10.4057 4.7435ZM10.4057 4.74349L10.8989 4.82569L10.9016 4.80954L10.9032 4.79324L10.4057 4.74349ZM10.4692 4.30624L9.99123 4.15936L9.99122 4.15936L10.4692 4.30624ZM11.2279 3.61964L11.3264 4.10982V4.10982L11.2279 3.61964ZM13.1724 3.61966L13.0737 4.10983L13.0737 4.10983L13.1724 3.61966ZM13.9309 4.30615L14.4088 4.15922V4.15922L13.9309 4.30615ZM14.4926 4.70123L14.4926 4.7012L13.4962 4.786L13.4962 4.78603L14.4926 4.70123ZM14.4944 4.74365V4.74363H13.4944V4.74365H14.4944ZM14.5772 5.33538C14.5739 5.32727 14.5613 5.29011 14.5449 5.17509C14.529 5.06318 14.5139 4.91383 14.4919 4.69389L13.4969 4.7934C13.518 5.00456 13.5353 5.17854 13.5549 5.31606C13.574 5.45048 13.6001 5.58887 13.6526 5.71631L14.5772 5.33538ZM15.2317 5.60649C14.9761 5.71293 14.6827 5.59138 14.5772 5.33538L13.6526 5.71631C13.9691 6.48433 14.8494 6.84897 15.6162 6.52964L15.2317 5.60649ZM15.7457 5.21321C15.5746 5.35317 15.4583 5.44814 15.3679 5.51601C15.275 5.58576 15.2398 5.60312 15.2317 5.60649L15.6162 6.52964C15.7434 6.47665 15.8597 6.39725 15.9683 6.31573C16.0794 6.23234 16.2146 6.12155 16.3789 5.98716L15.7457 5.21321ZM16.1824 4.89393C16.0394 4.96968 15.9049 5.08287 15.7457 5.21321L16.3789 5.98716C16.5745 5.82711 16.6175 5.79512 16.6505 5.7776L16.1824 4.89393ZM17.7152 4.97038C17.257 4.66568 16.6687 4.63634 16.1824 4.89393L16.6505 5.7776C16.8126 5.69174 17.0087 5.70152 17.1615 5.80308L17.7152 4.97038ZM18.118 5.33153C17.9725 5.18599 17.8499 5.05998 17.7152 4.97038L17.1615 5.80308C17.1926 5.8238 17.2322 5.85992 17.4109 6.03864L18.118 5.33153ZM18.8685 6.08206L18.118 5.33153L17.4109 6.03864L18.1614 6.78917L18.8685 6.08206ZM18.857 6.07086L18.857 6.07085L18.173 6.80038L18.173 6.8004L18.857 6.07086ZM19.2297 6.48487C19.1401 6.35014 19.0141 6.2276 18.8686 6.08207L18.1615 6.78918C18.3401 6.96788 18.3763 7.00745 18.397 7.0386L19.2297 6.48487ZM19.3061 8.01765C19.5637 7.53138 19.5344 6.9431 19.2297 6.48487L18.397 7.0386C18.4986 7.19134 18.5083 7.38744 18.4225 7.54953L19.3061 8.01765ZM18.9869 8.45438C19.1172 8.29511 19.2304 8.16063 19.3061 8.01765L18.4225 7.54953C18.4049 7.58259 18.373 7.62555 18.2129 7.82115L18.9869 8.45438ZM18.9903 8.45013L18.9903 8.45011L18.2095 7.82542L18.2095 7.82543L18.9903 8.45013ZM18.5936 8.96827C18.597 8.96017 18.6143 8.92498 18.6841 8.83208C18.752 8.74169 18.8469 8.62545 18.9869 8.4544L18.2129 7.82116C18.0785 7.98539 17.9678 8.12063 17.8844 8.23171C17.8029 8.34029 17.7235 8.45658 17.6705 8.58382L18.5936 8.96827ZM18.8647 9.6228C18.6087 9.51733 18.4872 9.22388 18.5936 8.96827L17.6705 8.58382C17.3511 9.35065 17.7158 10.231 18.4838 10.5474L18.8647 9.6228ZM19.5062 9.70809C19.2863 9.68609 19.1369 9.67106 19.025 9.65512C18.91 9.63874 18.8728 9.62614 18.8647 9.6228L18.4838 10.5474C18.6113 10.5999 18.7496 10.626 18.884 10.6451C19.0216 10.6647 19.1955 10.682 19.4067 10.7031L19.5062 9.70809ZM20.0408 9.79117C19.8861 9.74363 19.711 9.72857 19.5062 9.70809L19.4067 10.7031C19.6582 10.7283 19.7112 10.736 19.747 10.747L20.0408 9.79117ZM21.0706 10.929C20.962 10.3896 20.5668 9.95287 20.0408 9.79117L19.747 10.747C19.9223 10.8009 20.054 10.9465 20.0902 11.1263L21.0706 10.929ZM21.1 11.4693C21.1 11.2634 21.1025 11.0877 21.0706 10.929L20.0902 11.1263C20.0976 11.163 20.1 11.2165 20.1 11.4693H21.1ZM21.1 12.5307V11.4693H20.1V12.5307H21.1ZM21.0706 13.0708C21.1025 12.9122 21.1 12.7365 21.1 12.5307H20.1C20.1 12.7834 20.0976 12.8369 20.0902 12.8736L21.0706 13.0708ZM20.0407 14.2088C20.5668 14.0471 20.9621 13.6103 21.0706 13.0708L20.0902 12.8736C20.0541 13.0534 19.9223 13.199 19.7469 13.2529L20.0407 14.2088ZM19.5062 14.2918C19.711 14.2714 19.8861 14.2563 20.0407 14.2088L19.7469 13.2529C19.7112 13.2639 19.6582 13.2717 19.4067 13.2968L19.5062 14.2918ZM19.5062 14.2918L19.5062 14.2918L19.4067 13.2968L19.4067 13.2968L19.5062 14.2918ZM18.865 14.3771C18.8731 14.3738 18.9103 14.3612 19.0252 14.3448C19.1371 14.3289 19.2864 14.3138 19.5062 14.2918L19.4067 13.2968C19.1956 13.3179 19.0218 13.3352 18.8843 13.3548C18.7499 13.3739 18.6116 13.4 18.4842 13.4524L18.865 14.3771ZM18.5939 15.0317C18.4874 14.7761 18.6089 14.4825 18.865 14.3771L18.4842 13.4524C17.716 13.7688 17.3513 14.6493 17.6708 15.4163L18.5939 15.0317ZM18.987 15.5453C18.8471 15.3744 18.7522 15.2582 18.6843 15.1678C18.6146 15.075 18.5972 15.0398 18.5939 15.0317L17.6708 15.4163C17.7238 15.5434 17.8031 15.6597 17.8846 15.7682C17.968 15.8792 18.0787 16.0144 18.213 16.1786L18.987 15.5453ZM19.3061 15.9819C19.2304 15.839 19.1172 15.7046 18.987 15.5453L18.213 16.1786C18.373 16.3741 18.405 16.4171 18.4225 16.4501L19.3061 15.9819ZM19.2296 17.5149C19.5344 17.0566 19.5638 16.4682 19.3061 15.9819L18.4225 16.4501C18.5084 16.6122 18.4986 16.8083 18.397 16.9611L19.2296 17.5149ZM18.8687 17.9175C19.0141 17.7721 19.1401 17.6496 19.2296 17.5149L18.397 16.9611C18.3763 16.9922 18.3402 17.0318 18.1615 17.2104L18.8687 17.9175ZM18.1181 18.6681L18.8687 17.9175L18.1615 17.2104L17.4109 17.961L18.1181 18.6681ZM18.118 18.6681L18.1181 18.6681L17.4109 17.961L17.4109 17.961L18.118 18.6681ZM17.7152 19.0293C17.85 18.9397 17.9725 18.8137 18.118 18.6681L17.4109 17.961C17.2322 18.1398 17.1927 18.1759 17.1615 18.1966L17.7152 19.0293ZM16.1825 19.1057C16.6687 19.3633 17.257 19.334 17.7152 19.0293L17.1615 18.1966C17.0088 18.2981 16.8127 18.3079 16.6506 18.2221L16.1825 19.1057ZM15.7457 18.7865C15.905 18.9168 16.0395 19.03 16.1825 19.1057L16.6506 18.2221C16.6175 18.2046 16.5745 18.1726 16.3789 18.0125L15.7457 18.7865ZM15.785 18.8155L15.785 18.8155L16.3397 17.9835L16.3397 17.9835L15.785 18.8155ZM15.2318 18.3932C15.2399 18.3965 15.2751 18.4139 15.368 18.4837C15.4584 18.5515 15.5746 18.6465 15.7457 18.7865L16.3789 18.0125C16.2147 17.8781 16.0794 17.7673 15.9683 17.6839C15.8598 17.6024 15.7435 17.523 15.6162 17.47L15.2318 18.3932ZM14.5773 18.6643C14.6827 18.4083 14.9762 18.2867 15.2318 18.3932L15.6162 17.47C14.8494 17.1507 13.9691 17.5153 13.6527 18.2834L14.5773 18.6643ZM14.492 19.3059C14.514 19.086 14.529 18.9366 14.5449 18.8246C14.5613 18.7096 14.5739 18.6724 14.5773 18.6643L13.6527 18.2834C13.6002 18.4108 13.5741 18.5492 13.5549 18.6837C13.5353 18.8212 13.518 18.9952 13.4969 19.2064L14.492 19.3059ZM14.4088 19.8409C14.4564 19.6862 14.4715 19.5109 14.492 19.3059L13.4969 19.2064C13.4717 19.4581 13.464 19.5112 13.453 19.547L14.4088 19.8409ZM13.2711 20.8705C13.8105 20.7619 14.2471 20.3668 14.4088 19.8409L13.453 19.547C13.3991 19.7223 13.2535 19.854 13.0738 19.8902L13.2711 20.8705ZM12.7306 20.9C12.9366 20.9 13.1124 20.9025 13.2711 20.8705L13.0738 19.8902C13.0371 19.8976 12.9835 19.9 12.7306 19.9V20.9ZM11.6694 20.9H12.7306V19.9H11.6694V20.9ZM11.1291 20.8705C11.2878 20.9025 11.4635 20.9 11.6694 20.9V19.9C11.4166 19.9 11.3631 19.8976 11.3264 19.8902L11.1291 20.8705ZM9.99127 19.8408C10.153 20.3668 10.5897 20.762 11.1291 20.8705L11.3264 19.8902C11.1466 19.854 11.001 19.7223 10.9471 19.5469L9.99127 19.8408ZM9.90818 19.3061C9.92866 19.511 9.94372 19.6861 9.99127 19.8408L10.9471 19.5469C10.9361 19.5112 10.9284 19.4582 10.9032 19.2066L9.90818 19.3061ZM9.82288 18.6646C9.82622 18.6728 9.83883 18.7099 9.85521 18.8249C9.87114 18.9369 9.88618 19.0862 9.90818 19.3061L10.9032 19.2066C10.8821 18.9955 10.8648 18.8215 10.8452 18.684C10.8261 18.5495 10.8 18.4112 10.7475 18.2837L9.82288 18.6646ZM9.16837 18.3935C9.42397 18.2871 9.7174 18.4086 9.82288 18.6646L10.7475 18.2837C10.4311 17.5157 9.55075 17.1511 8.78395 17.4704L9.16837 18.3935ZM8.65443 18.7869C8.82551 18.6469 8.94175 18.5519 9.03216 18.484C9.12508 18.4143 9.16027 18.3969 9.16837 18.3935L8.78395 17.4704C8.6567 17.5234 8.54038 17.6028 8.4318 17.6843C8.3207 17.7677 8.18545 17.8785 8.02119 18.0129L8.65443 18.7869ZM8.2176 19.1062C8.3606 19.0304 8.49511 18.9172 8.65443 18.7869L8.02119 18.0129C7.82554 18.173 7.78257 18.205 7.7495 18.2225L8.2176 19.1062ZM6.6849 19.0297C7.14311 19.3344 7.73135 19.3637 8.2176 19.1062L7.7495 18.2225C7.58742 18.3083 7.39134 18.2986 7.2386 18.197L6.6849 19.0297ZM6.28202 18.6685C6.42757 18.8141 6.55014 18.9401 6.6849 19.0297L7.23861 18.197C7.20744 18.1763 7.16787 18.1402 6.98913 17.9614L6.28202 18.6685ZM5.53155 17.9181L6.28202 18.6685L6.98913 17.9614L6.23865 17.211L5.53155 17.9181ZM5.17034 17.5151C5.25994 17.6499 5.38598 17.7725 5.53155 17.9181L6.23865 17.211C6.0599 17.0322 6.02378 16.9926 6.00306 16.9615L5.17034 17.5151ZM5.09389 15.9825C4.83634 16.4687 4.86568 17.057 5.17034 17.5151L6.00306 16.9615C5.90151 16.8087 5.89173 16.6127 5.97758 16.4506L5.09389 15.9825ZM5.41323 15.5456C5.28287 15.705 5.16965 15.8395 5.09389 15.9825L5.97758 16.4506C5.9951 16.4175 6.0271 16.3745 6.18719 16.1789L5.41323 15.5456ZM5.42393 15.533L5.42392 15.533L6.1765 16.1915L6.17651 16.1915L5.42393 15.533ZM5.80656 15.0316C5.80319 15.0397 5.78583 15.0749 5.71607 15.1679C5.6482 15.2583 5.55322 15.3745 5.41324 15.5456L6.1872 16.1789C6.32159 16.0146 6.4324 15.8793 6.5158 15.7682C6.59732 15.6596 6.67674 15.5433 6.72973 15.4161L5.80656 15.0316ZM5.53546 14.3772C5.79145 14.4826 5.91299 14.7761 5.80656 15.0316L6.72973 15.4161C7.04902 14.6493 6.6844 13.769 5.91642 13.4526L5.53546 14.3772ZM4.89392 14.2918C5.11388 14.3138 5.26324 14.3289 5.37516 14.3448C5.49019 14.3612 5.52735 14.3738 5.53546 14.3771L5.91643 13.4526C5.78897 13.4 5.65057 13.3739 5.51613 13.3548C5.3786 13.3352 5.20461 13.3179 4.99342 13.2968L4.89392 14.2918ZM4.35926 14.2088C4.51394 14.2563 4.6891 14.2714 4.89392 14.2918L4.99343 13.2968C4.7419 13.2717 4.68889 13.2639 4.65312 13.2529L4.35926 14.2088ZM3.32953 13.0709C3.43809 13.6104 3.8333 14.0471 4.35925 14.2087L4.65312 13.2529C4.4778 13.199 4.34606 13.0534 4.30988 12.8736L3.32953 13.0709ZM3.30005 12.5306C3.30005 12.7365 3.2976 12.9123 3.32953 13.0709L4.30988 12.8736C4.30249 12.8369 4.30005 12.7834 4.30005 12.5306H3.30005ZM3.30005 11.4694L3.30005 12.5306L4.30005 12.5306L4.30005 11.4694H3.30005ZM3.32955 10.9289C3.2976 11.0876 3.30005 11.2635 3.30005 11.4694H4.30005C4.30005 11.2165 4.30249 11.163 4.30988 11.1263L3.32955 10.9289ZM4.35917 9.79121C3.83328 9.95292 3.43813 10.3896 3.32955 10.9289L4.30988 11.1263C4.34608 10.9465 4.47779 10.8009 4.65309 10.747L4.35917 9.79121ZM4.894 9.70808C4.68911 9.72857 4.5139 9.74363 4.35917 9.79121L4.65309 10.747C4.68887 10.736 4.7419 10.7283 4.9935 10.7031L4.894 9.70808ZM5.53574 9.62274C5.52762 9.62608 5.49045 9.6387 5.37539 9.65509C5.26343 9.67103 5.11402 9.68608 4.894 9.70808L4.9935 10.7031C5.20475 10.682 5.37879 10.6647 5.51637 10.6451C5.65085 10.6259 5.78929 10.5998 5.91678 10.5473L5.53574 9.62274ZM5.80681 8.9683C5.91321 9.22388 5.79168 9.51725 5.53574 9.62274L5.91678 10.5473C6.68463 10.2308 7.04919 9.3507 6.73001 8.58398L5.80681 8.9683ZM5.41334 8.45413C5.55337 8.62529 5.64839 8.74159 5.71629 8.83204C5.78608 8.92499 5.80344 8.9602 5.80681 8.9683L6.73001 8.58398C6.67702 8.45668 6.59758 8.34031 6.51603 8.23168C6.43259 8.12054 6.32175 7.98523 6.1873 7.8209L5.41334 8.45413ZM5.40032 8.43751L5.40032 8.43752L6.20032 7.83752L6.20032 7.83751L5.40032 8.43751ZM5.09387 8.01707C5.16964 8.16015 5.28292 8.29473 5.41334 8.45413L6.18729 7.82089C6.02713 7.62514 5.99512 7.58215 5.97759 7.54906L5.09387 8.01707ZM5.1703 6.48463C4.86573 6.94277 4.8364 7.53089 5.09387 8.01707L5.97759 7.54906C5.89177 7.387 5.90155 7.19096 6.00307 7.03824L5.1703 6.48463ZM5.53165 6.08154C5.38603 6.22716 5.25994 6.34979 5.1703 6.48462L6.00307 7.03824C6.0238 7.00706 6.05993 6.96747 6.23876 6.78864L5.53165 6.08154ZM6.28205 5.33114L5.53165 6.08154L6.23876 6.78864L6.98916 6.03824L6.28205 5.33114ZM6.68494 4.96995C6.55018 5.05955 6.42761 5.18558 6.28205 5.33114L6.98916 6.03824C7.1679 5.8595 7.20748 5.82339 7.23864 5.80266L6.68494 4.96995ZM8.21763 4.8935C7.73138 4.63593 7.14314 4.66527 6.68494 4.96995L7.23864 5.80266C7.39137 5.70111 7.58745 5.69133 7.74954 5.77718L8.21763 4.8935ZM8.65452 5.21287C8.49517 5.08249 8.36064 4.96926 8.21763 4.8935L7.74954 5.77718C7.7826 5.7947 7.82559 5.82671 8.02128 5.98682L8.65452 5.21287ZM9.16834 5.6061C9.16026 5.60273 9.12508 5.58537 9.03218 5.51563C8.94179 5.44777 8.82556 5.35281 8.65452 5.21287L8.02128 5.98682C8.1855 6.12119 8.32072 6.23195 8.43179 6.31534C8.54034 6.39683 8.65661 6.47622 8.7838 6.52921L9.16834 5.6061ZM9.82294 5.33496C9.71748 5.59102 9.42398 5.71259 9.16834 5.6061L8.7838 6.52921C9.5507 6.84868 10.4312 6.48397 10.7476 5.71578L9.82294 5.33496ZM9.90819 4.69375C9.8862 4.91359 9.87117 5.06287 9.85524 5.17474C9.83888 5.28971 9.82628 5.32685 9.82294 5.33496L10.7476 5.71578C10.8001 5.58838 10.8261 5.45005 10.8453 5.31569C10.8648 5.17822 10.8821 5.00432 10.9032 4.79325L9.90819 4.69375ZM9.91251 4.66129L9.91251 4.6613L10.8989 4.8257L10.8989 4.82569L9.91251 4.66129ZM9.99122 4.15936C9.94371 4.31397 9.92866 4.48903 9.90819 4.69374L10.9032 4.79324C10.9284 4.54186 10.9361 4.48888 10.9471 4.45312L9.99122 4.15936ZM11.1293 3.12946C10.5897 3.23799 10.1529 3.63328 9.99123 4.15936L10.9471 4.45312C11.001 4.27776 11.1466 4.146 11.3264 4.10982L11.1293 3.12946ZM11.6693 3.10001C11.4635 3.10001 11.2878 3.09756 11.1293 3.12946L11.3264 4.10982C11.3631 4.10245 11.4166 4.10001 11.6693 4.10001V3.10001ZM12.7307 3.10001H11.6693V4.10001H12.7307V3.10001ZM13.271 3.12949C13.1124 3.09756 12.9366 3.10001 12.7307 3.10001V4.10001C12.9835 4.10001 13.037 4.10245 13.0737 4.10983L13.271 3.12949ZM14.4088 4.15922C14.2471 3.63326 13.8104 3.23805 13.271 3.12949L13.0737 4.10983C13.2535 4.14602 13.3991 4.27776 13.453 4.45308L14.4088 4.15922ZM14.4919 4.69384C14.4715 4.48905 14.4564 4.31389 14.4088 4.15922L13.453 4.45308C13.464 4.48884 13.4717 4.54185 13.4969 4.79335L14.4919 4.69384ZM15.0601 12C15.0601 13.5795 13.7796 14.86 12.2001 14.86V15.86C14.3319 15.86 16.0601 14.1318 16.0601 12H15.0601ZM12.2001 9.13997C13.7796 9.13997 15.0601 10.4204 15.0601 12H16.0601C16.0601 9.86815 14.3319 8.13997 12.2001 8.13997V9.13997ZM9.34006 12C9.34006 10.4204 10.6205 9.13997 12.2001 9.13997V8.13997C10.0682 8.13997 8.34006 9.86815 8.34006 12H9.34006ZM12.2001 14.86C10.6205 14.86 9.34006 13.5795 9.34006 12H8.34006C8.34006 14.1318 10.0682 15.86 12.2001 15.86V14.86Z" fill="#4998EE"/>
</svg>
