<svg width="25" height="24" viewBox="0 0 25 24" fill="none" xmlns="http://www.w3.org/2000/svg">
<path d="M9.6001 6C9.6001 6.39397 9.67769 6.78407 9.82846 7.14805C9.97922 7.51203 10.2002 7.84274 10.4788 8.12132C10.7574 8.3999 11.0881 8.62087 11.452 8.77164C11.816 8.9224 12.2061 9 12.6001 9C12.9941 9 13.3842 8.9224 13.7481 8.77164C14.1121 8.62087 14.4428 8.3999 14.7214 8.12132C15 7.84274 15.221 7.51203 15.3717 7.14805C15.5225 6.78407 15.6001 6.39396 15.6001 6C15.6001 5.60603 15.5225 5.21593 15.3717 4.85195C15.221 4.48797 15 4.15725 14.7214 3.87868C14.4428 3.6001 14.1121 3.37912 13.7481 3.22836C13.3842 3.0776 12.9941 3 12.6001 3C12.2061 3 11.816 3.0776 11.452 3.22836C11.0881 3.37913 10.7574 3.6001 10.4788 3.87868C10.2002 4.15726 9.97922 4.48797 9.82846 4.85195C9.67769 5.21593 9.6001 5.60604 9.6001 6L9.6001 6Z" stroke="#F4A732"/>
<path d="M5.03767 13.9015C4.69648 14.0985 4.39744 14.3607 4.15761 14.6733C3.91778 14.9858 3.74185 15.3426 3.63989 15.7231C3.53792 16.1037 3.51191 16.5006 3.56333 16.8912C3.61475 17.2818 3.74261 17.6584 3.93959 17.9996C4.13657 18.3408 4.39883 18.6398 4.71138 18.8796C5.02394 19.1195 5.38067 19.2954 5.76121 19.3974C6.14175 19.4993 6.53865 19.5253 6.92925 19.4739C7.31984 19.4225 7.69648 19.2946 8.03767 19.0977C8.37885 18.9007 8.6779 18.6384 8.91773 18.3259C9.15756 18.0133 9.33348 17.6566 9.43544 17.276C9.53741 16.8955 9.56342 16.4986 9.512 16.108C9.46058 15.7174 9.33272 15.3408 9.13574 14.9996C8.93876 14.6584 8.6765 14.3594 8.36395 14.1195C8.0514 13.8797 7.69466 13.7038 7.31412 13.6018C6.93358 13.4998 6.53668 13.4738 6.14609 13.5252C5.75549 13.5767 5.37885 13.7045 5.03766 13.9015L5.03767 13.9015Z" stroke="#F4A732"/>
<path d="M20.1625 13.9015C20.5037 14.0985 20.8028 14.3607 21.0426 14.6733C21.2824 14.9859 21.4583 15.3426 21.5603 15.7231C21.6623 16.1037 21.6883 16.5006 21.6369 16.8912C21.5854 17.2818 21.4576 17.6584 21.2606 17.9996C21.0636 18.3408 20.8014 18.6398 20.4888 18.8796C20.1763 19.1195 19.8195 19.2954 19.439 19.3974C19.0584 19.4993 18.6615 19.5253 18.2709 19.4739C17.8804 19.4225 17.5037 19.2946 17.1625 19.0977C16.8213 18.9007 16.5223 18.6384 16.2825 18.3259C16.0426 18.0133 15.8667 17.6566 15.7648 17.276C15.6628 16.8955 15.6368 16.4986 15.6882 16.108C15.7396 15.7174 15.8675 15.3408 16.0645 14.9996C16.2614 14.6584 16.5237 14.3594 16.8362 14.1195C17.1488 13.8797 17.5055 13.7038 17.8861 13.6018C18.2666 13.4998 18.6635 13.4738 19.0541 13.5252C19.4447 13.5767 19.8213 13.7045 20.1625 13.9015L20.1625 13.9015Z" stroke="#F4A732"/>
<path fill-rule="evenodd" clip-rule="evenodd" d="M9.60264 6.12533C9.6009 6.08372 9.60003 6.04203 9.60003 6.0003C9.60003 5.65294 9.66035 5.30857 9.77797 4.98247C9.63311 5.03346 9.48949 5.08843 9.34728 5.14733C8.31602 5.5745 7.37898 6.2006 6.58969 6.9899C5.80039 7.7792 5.17428 8.71623 4.74712 9.7475C4.31996 10.7788 4.1001 11.8841 4.1001 13.0003C4.1001 13.5265 4.14895 14.0502 4.24533 14.5648C4.46893 14.2999 4.73701 14.0755 5.03784 13.9018C5.07398 13.8809 5.11052 13.8609 5.14743 13.8415C5.11596 13.5628 5.1001 13.2819 5.1001 13.0003C5.1001 12.0154 5.29409 11.0401 5.671 10.1302C6.04791 9.22024 6.60036 8.39345 7.29679 7.69701C7.96061 7.03319 8.74285 6.5002 9.60264 6.12533ZM15.5974 6.12528C16.4573 6.50014 17.2395 7.03315 17.9034 7.697C18.5998 8.39344 19.1523 9.22023 19.5292 10.1302C19.9061 11.0401 20.1001 12.0154 20.1001 13.0003C20.1001 13.282 20.0842 13.5628 20.0528 13.8416C20.0896 13.8609 20.1261 13.881 20.1622 13.9018C20.4631 14.0755 20.7312 14.3 20.9548 14.565C21.0512 14.0503 21.1001 13.5265 21.1001 13.0003C21.1001 11.8841 20.8802 10.7788 20.4531 9.74749C20.0259 8.71622 19.3998 7.77919 18.6105 6.98989C17.8212 6.2006 16.8842 5.57449 15.8529 5.14733C15.7106 5.0884 15.567 5.03342 15.4221 4.98242C15.5397 5.30854 15.6 5.65292 15.6 6.0003C15.6 6.04201 15.5992 6.08368 15.5974 6.12528ZM18.1331 19.4529C17.7917 19.3917 17.4632 19.2717 17.1622 19.098C17.1262 19.0772 17.0907 19.0556 17.0556 19.0334C16.5666 19.3945 16.0344 19.6957 15.4702 19.9294C14.5603 20.3063 13.585 20.5003 12.6001 20.5003C11.6152 20.5003 10.6399 20.3063 9.72997 19.9294C9.16577 19.6957 8.63354 19.3945 8.14453 19.0334C8.10945 19.0556 8.07388 19.0772 8.03784 19.098C7.73691 19.2717 7.40839 19.3917 7.06704 19.4528C7.74738 20.0362 8.51677 20.5093 9.34729 20.8533C10.3786 21.2804 11.4839 21.5003 12.6001 21.5003C13.7163 21.5003 14.8216 21.2804 15.8529 20.8533C16.6834 20.5093 17.4528 20.0362 18.1331 19.4529Z" fill="#F4A732"/>
</svg>
