<svg width="24" height="24" viewBox="0 0 24 24" fill="none" xmlns="http://www.w3.org/2000/svg">
<path d="M21.7407 19.875C20.3412 17.4643 18.1012 15.6549 15.4501 14.7938C16.7208 14.0381 17.7083 12.8861 18.2609 11.5148C18.8135 10.1435 18.9005 8.62865 18.5087 7.20306C18.1168 5.77746 17.2678 4.51995 16.0919 3.6237C14.9161 2.72745 13.4785 2.24203 12.0001 2.24203C10.5216 2.24203 9.08403 2.72745 7.90819 3.6237C6.73235 4.51995 5.88329 5.77746 5.49145 7.20306C5.09961 8.62865 5.18666 10.1435 5.73922 11.5148C6.29179 12.8861 7.2793 14.0381 8.55007 14.7938C5.89891 15.6549 3.65888 17.4643 2.25944 19.875C2.20074 19.9602 2.16029 20.0565 2.14063 20.1581C2.12097 20.2596 2.12252 20.3641 2.14519 20.465C2.16785 20.5659 2.21115 20.6611 2.27235 20.7444C2.33355 20.8278 2.41133 20.8976 2.50081 20.9495C2.59028 21.0014 2.68952 21.0342 2.79228 21.0459C2.89505 21.0575 2.99912 21.0478 3.09795 21.0174C3.19678 20.9869 3.28824 20.9363 3.36659 20.8688C3.44493 20.8013 3.50846 20.7183 3.55319 20.625C4.41042 19.1437 5.64211 17.9139 7.1247 17.059C8.60728 16.204 10.2886 15.754 12.0001 15.754C13.7115 15.754 15.3928 16.204 16.8754 17.059C18.358 17.9139 19.5897 19.1437 20.4469 20.625C20.4917 20.7183 20.5552 20.8013 20.6335 20.8688C20.7119 20.9363 20.8033 20.9869 20.9022 21.0174C21.001 21.0478 21.1051 21.0575 21.2078 21.0459C21.3106 21.0342 21.4098 21.0014 21.4993 20.9495C21.5888 20.8976 21.6666 20.8278 21.7278 20.7444C21.789 20.6611 21.8323 20.5659 21.8549 20.465C21.8776 20.3641 21.8792 20.2596 21.8595 20.1581C21.8398 20.0565 21.7994 19.9602 21.7407 19.875ZM6.75007 9.00001C6.75007 7.96166 7.05797 6.94662 7.63485 6.08326C8.21173 5.21991 9.03167 4.547 9.99098 4.14964C10.9503 3.75228 12.0059 3.64831 13.0243 3.85089C14.0427 4.05346 14.9781 4.55347 15.7124 5.2877C16.4466 6.02192 16.9466 6.95738 17.1492 7.97578C17.3518 8.99418 17.2478 10.0498 16.8504 11.0091C16.4531 11.9684 15.7802 12.7883 14.9168 13.3652C14.0535 13.9421 13.0384 14.25 12.0001 14.25C10.6077 14.25 9.27232 13.6969 8.28776 12.7123C7.30319 11.7278 6.75007 10.3924 6.75007 9.00001Z" fill="#3CDC86"/>
</svg>
